<svg width="837" height="465" viewBox="0 0 837 465" fill="none" xmlns="http://www.w3.org/2000/svg">
<style>
  @keyframes waveDown {
    from { opacity: 0; transform: translateY(-28px); }
    to   { opacity: 1; transform: translateY(0); }
  }
  @keyframes waveUp {
    from { opacity: 0; transform: translateY(40px) scaleY(0.97); }
    to   { opacity: 1; transform: translateY(0) scaleY(1); }
  }
  @keyframes letterRise {
    from { opacity: 0; transform: translateY(22px); }
    to   { opacity: 1; transform: translateY(0); }
  }

  .w1 { animation: waveDown 700ms cubic-bezier(0.25,0.46,0.45,0.94)   0ms   both; transform-box: fill-box; transform-origin: top center; }
  .w2 { animation: waveDown 700ms cubic-bezier(0.25,0.46,0.45,0.94)  100ms  both; transform-box: fill-box; transform-origin: top center; }
  .w3 { animation: waveDown 650ms cubic-bezier(0.25,0.46,0.45,0.94)  220ms  both; transform-box: fill-box; transform-origin: top center; }
  .w4 { animation: waveDown 650ms cubic-bezier(0.25,0.46,0.45,0.94)  330ms  both; transform-box: fill-box; transform-origin: top center; }
  .w5 { animation: waveDown 600ms cubic-bezier(0.25,0.46,0.45,0.94)  430ms  both; transform-box: fill-box; transform-origin: top center; }
  .wb { animation: waveUp   750ms cubic-bezier(0.34,1.20,0.64,1)     560ms  both; transform-box: fill-box; transform-origin: center bottom; }
  .wd { animation: waveUp   500ms ease                                680ms  both; transform-box: fill-box; transform-origin: center bottom; }

  /* Letters ordered left-to-right by x position */
  .l1  { animation: letterRise 520ms cubic-bezier(0.34,1.56,0.64,1)  820ms  both; transform-box: fill-box; transform-origin: center bottom; }
  .l2  { animation: letterRise 520ms cubic-bezier(0.34,1.56,0.64,1)  920ms  both; transform-box: fill-box; transform-origin: center bottom; }
  .l3  { animation: letterRise 520ms cubic-bezier(0.34,1.56,0.64,1) 1010ms  both; transform-box: fill-box; transform-origin: center bottom; }
  .l4  { animation: letterRise 520ms cubic-bezier(0.34,1.56,0.64,1) 1090ms  both; transform-box: fill-box; transform-origin: center bottom; }
  .l5  { animation: letterRise 520ms cubic-bezier(0.34,1.56,0.64,1) 1180ms  both; transform-box: fill-box; transform-origin: center bottom; }
  .l6  { animation: letterRise 520ms cubic-bezier(0.34,1.56,0.64,1) 1260ms  both; transform-box: fill-box; transform-origin: center bottom; }
  .l7  { animation: letterRise 520ms cubic-bezier(0.34,1.56,0.64,1) 1340ms  both; transform-box: fill-box; transform-origin: center bottom; }
  .l8  { animation: letterRise 520ms cubic-bezier(0.34,1.56,0.64,1) 1410ms  both; transform-box: fill-box; transform-origin: center bottom; }
  .l9  { animation: letterRise 520ms cubic-bezier(0.34,1.56,0.64,1) 1480ms  both; transform-box: fill-box; transform-origin: center bottom; }
  .l10 { animation: letterRise 520ms cubic-bezier(0.34,1.56,0.64,1) 1550ms  both; transform-box: fill-box; transform-origin: center bottom; }

  @media (prefers-reduced-motion: reduce) {
    .w1,.w2,.w3,.w4,.w5,.wb,.wd,
    .l1,.l2,.l3,.l4,.l5,.l6,.l7,.l8,.l9,.l10 { animation: none; opacity: 1; }
  }
</style>
<g clip-path="url(#clip0_46_28)">

<!-- Black base — always visible, no animation -->
<path d="M0 0H837V40.003V85.4767V114.877V133.808V212.798V219.822V462.078L589.141 462.009L0 462.001V218.497V212.229V141.358V127.524V93.4707V53.7055V0Z" fill="black"/>

<!-- Wave band 1 — blue top -->
<path class="w1" d="M0 0H837V40.003V85.4766V114.877V133.808C828.998 132.934 821.077 131.437 813.198 130.769C811.583 130.631 804.423 132.065 801.844 132.359C794.79 133.162 788.566 132.61 781.614 132.968C777.589 133.176 771.908 135.336 767.862 135.541C762.622 135.807 756.488 136.473 751.297 136.361C743.573 136.195 735.706 135.451 727.965 135.316C723.682 135.241 718.651 136.524 714.372 136.465C706.497 136.357 698.405 131.805 690.496 131.642C679.449 131.55 668.264 131.586 657.233 131.477C637.362 131.28 617.398 129.095 597.65 131.894C588.07 133.46 578.335 131.498 569.013 131.38C560.251 131.27 551.214 129.48 542.902 129.475C541.933 125.462 541.23 120.824 540.519 116.717C539.804 115.684 539.015 112.505 538.561 111.144C535.794 102.86 534.429 95.7254 527.727 89.6572C521.494 85.3373 515.454 81.2303 508.097 79.3691C503.034 81.1351 499.956 84.8257 496.209 88.5956C483.6 87.0281 470.486 87.9071 457.796 87.811C448.735 87.7424 439.008 86.472 429.996 86.9693C420.376 87.5005 412.419 88.6916 402.599 88.3214C392.359 87.713 381.939 87.3571 371.713 86.5991C357.153 85.5204 341.34 87.201 326.956 86.1296C298.731 84.0265 271.108 83.4859 242.807 84.0796C225.171 84.4498 208.545 88.4681 190.952 89.1958C175.626 89.6984 160.364 89.367 145.034 89.4925C129.612 89.7184 113.702 91.1179 98.3401 91.7905C87.7583 92.2539 75.3026 91.7468 64.5164 91.6156C43.0172 91.3549 21.4473 91.52 0 93.4707V53.7055V0Z" fill="#013DA7"/>

<!-- Wave band 2 — purple top -->
<path class="w2" d="M0 0H837V40.003C826.582 39.621 816.169 39.6646 805.768 39.1641C800.684 38.9196 795.624 38.4624 790.524 38.2945C778.394 37.895 766.419 38.7445 754.33 39.5158C729.11 40.0113 703.779 40.1612 678.563 39.4159C668.807 39.2595 659.665 36.9664 649.893 37.0198C642.818 36.8718 635.769 39.4261 628.841 39.9226C589.358 42.7526 549.943 39.7906 510.501 38.2706C505.22 38.0672 498.362 40.6746 492.968 41.2162C485.856 41.9293 478.77 41.7818 471.675 42.5124C465.115 43.2879 458.723 44.8423 452.233 45.8863C446.32 46.8028 440.353 47.3291 434.369 47.4619C410.911 48.2006 387.261 46.8955 363.787 48.5357C361.425 48.7008 358.834 48.7845 356.464 48.7445L300.569 47.7217C284.884 47.5338 270.868 46.8122 255.316 50.0288C250.482 51.0282 241.172 49.9895 235.71 50.6682C214.693 53.2797 194.991 55.051 173.811 52.7562C164.359 51.7319 150.62 52.8907 141.102 53.9502C125.122 58.7118 115.498 54.6996 99.6704 54.3695C87.8899 54.1235 73.7672 57.5734 61.658 57.1639C45.9148 57.5967 31.4347 56.6785 15.8859 54.4495C11.2476 53.7843 4.86968 53.9858 0 53.7055V0Z" fill="#500C76"/>

<!-- Wave band 3 — purple mid section -->
<path class="w3" d="M527.727 89.6571C529.12 88.4677 531.356 88.3005 533.146 88.1731C539.047 87.7526 544.986 87.7514 550.891 87.4016C558.092 86.9754 565.404 84.5765 572.585 84.3252C585.205 83.8835 597.862 84.0874 610.487 83.9161C619.502 84.2014 629.045 83.1447 637.992 83.4789C664.356 84.4637 690.12 84.2005 716.432 82.2151C733.368 80.9374 751.207 81.4065 768.25 80.9643C778.761 80.6918 790.066 82.8448 800.569 83.463C812.756 84.2831 824.776 84.5679 837 85.4766V114.877V133.808C828.998 132.934 821.077 131.437 813.198 130.769C811.583 130.631 804.423 132.065 801.844 132.359C794.79 133.162 788.566 132.61 781.614 132.968C777.588 133.176 771.907 135.336 767.861 135.541C762.622 135.807 756.488 136.473 751.297 136.361C743.573 136.195 735.706 135.451 727.965 135.316C723.682 135.241 718.651 136.524 714.372 136.465C706.496 136.357 698.404 131.805 690.496 131.642C679.449 131.55 668.263 131.586 657.233 131.476C637.362 131.28 617.398 129.095 597.65 131.894C588.07 133.46 578.335 131.498 569.013 131.38C560.25 131.27 551.214 129.48 542.901 129.475C541.933 125.462 541.23 120.824 540.519 116.717C539.803 115.684 539.015 112.505 538.561 111.144C535.794 102.86 534.429 95.7254 527.727 89.6571Z" fill="#500C76"/>

<!-- Wave band 3b — orange accent top right -->
<path class="w3" d="M609.511 112.457C617.447 111.595 625.454 111.631 633.382 112.564C639.97 113.384 654.532 116.375 660.397 115.152C677.28 111.631 692.43 117.073 708.88 115.738C728.142 114.175 746.672 117.019 765.937 116.192C771.814 115.94 777.659 113.63 783.495 113.015C789.421 112.763 795.866 112.41 801.776 112.734C812.945 113.346 826.125 113.307 837.001 114.877V133.808C828.998 132.934 821.078 131.437 813.198 130.769C811.584 130.632 804.424 132.065 801.845 132.359C794.791 133.162 788.567 132.61 781.615 132.968C777.589 133.176 771.908 135.336 767.862 135.541C762.623 135.807 756.488 136.473 751.298 136.361C743.574 136.195 735.706 135.451 727.966 135.316C723.683 135.241 718.652 136.524 714.373 136.465C706.497 136.357 698.405 131.805 690.497 131.642C679.45 131.55 668.264 131.586 657.234 131.477C637.363 131.28 617.398 129.095 597.65 131.894C588.071 133.46 578.336 131.498 569.013 131.38C560.251 131.27 551.215 129.48 542.902 129.475C541.934 125.462 541.231 120.824 540.52 116.717C552.175 118.238 562.454 119.048 574.187 119.64C582.079 120.039 589.591 121.573 597.675 120.721C603.818 120.073 605.792 117.17 609.511 112.457Z" fill="#F34818"/>

<!-- Wave band 4 — purple lower wave -->
<path class="w4" d="M0 93.4707C21.4473 91.52 43.0172 91.3549 64.5164 91.6156C75.3026 91.7468 87.7583 92.2539 98.3401 91.7905C113.702 91.1179 129.612 89.7185 145.034 89.4925C160.364 89.367 175.626 89.6984 190.952 89.1958C208.545 88.4681 225.171 84.4498 242.807 84.0796C271.108 83.4859 298.731 84.0265 326.956 86.1296C341.34 87.201 357.153 85.5204 371.713 86.5991C381.939 87.3571 392.359 87.713 402.599 88.3214C412.419 88.6916 420.376 87.5005 429.996 86.9693C439.008 86.472 448.735 87.7424 457.796 87.8111C470.486 87.9071 483.6 87.0282 496.209 88.5956C486.277 99.4132 474.36 111.973 463.75 122.119C461.151 125.397 459.271 128.016 457.072 131.598C456.239 132.956 454.567 136.089 453.758 137.191C438.726 133.873 433.528 138.221 418.692 139.086C411.863 139.483 403.942 138.629 397.166 139.481C393.083 139.994 388.739 142.581 384.343 142.831C374.858 143.372 364.988 142.531 355.577 143.562C351.764 143.98 346.738 146.57 342.828 147.325C336.866 148.475 330.34 147.381 324.418 147.993C320.518 148.396 316.366 150.373 312.147 150.968C307.615 151.608 298.979 149.75 295.254 150.297C293.527 150.204 291.645 150.261 289.902 150.278C279.926 147.977 268.193 149.513 258.293 150.4C251.751 150.986 242.764 150.318 236.018 150.392C230.834 150.45 224.812 144.065 219.612 143.895C214.355 143.723 208.184 145.556 202.904 146.059C193.175 146.987 183.083 147.382 173.318 147.392C168.821 147.396 163.614 146.021 158.786 145.878C149.572 145.606 139.618 146.937 130.588 145.561C127.026 145.019 120.762 143.578 117.246 142.619C111.889 141.159 109.004 139.181 103.045 138.908C95.2447 138.552 87.999 140.098 80.4031 140.328C73.0593 140.55 65.212 140.014 57.82 140.354C38.246 141.257 19.6093 141.756 0 141.358V127.524V93.4707Z" fill="#500C76"/>

<!-- Wave band 4b — orange band -->
<path class="w4" d="M0 127.524C8.45599 127.643 17.0836 126.372 25.7438 126.482C34.5697 126.595 42.9637 127.522 51.7661 127.526C57.0043 127.528 62.0381 126.841 67.2326 126.6C73.1116 126.505 79.3119 126.194 85.1692 126.432C97.6384 126.938 109.148 128.192 121.675 126.689C128.758 125.839 137.066 126.398 144.266 125.864C147.65 125.613 152.149 126.344 155.547 126.828C158.629 127.366 163.71 129.258 166.633 128.977C175.886 128.091 185.162 125.93 194.395 124.637C200.471 123.786 206.548 124.46 212.302 124.031C220.679 123.406 227.875 123.149 236.234 123.017C247.165 122.616 258.048 123.505 268.926 123.871C281.377 124.29 293.632 124.179 305.992 126.198C310.089 126.613 314.62 127.548 318.725 127.412C335.664 126.852 352.549 127.812 369.479 127.416C372.099 127.355 375.231 125.146 377.873 125.11C385.626 125.002 393.374 125.154 401.124 124.994C421.859 123.965 443.062 123.512 463.75 122.119C461.151 125.397 459.271 128.016 457.072 131.598C456.239 132.956 454.567 136.089 453.758 137.191C438.726 133.873 433.528 138.221 418.692 139.086C411.863 139.483 403.942 138.629 397.166 139.481C393.083 139.994 388.739 142.581 384.343 142.831C374.858 143.372 364.988 142.531 355.577 143.562C351.764 143.98 346.738 146.57 342.828 147.325C336.866 148.475 330.34 147.381 324.418 147.993C320.518 148.396 316.366 150.373 312.147 150.968C307.615 151.608 298.979 149.75 295.254 150.297C293.527 150.204 291.645 150.261 289.902 150.278C279.926 147.977 268.193 149.513 258.293 150.4C251.751 150.986 242.764 150.318 236.018 150.392C230.834 150.45 224.812 144.065 219.612 143.895C214.355 143.723 208.184 145.556 202.904 146.059C193.175 146.987 183.083 147.382 173.318 147.392C168.821 147.396 163.614 146.021 158.786 145.878C149.572 145.606 139.618 146.937 130.588 145.561C127.026 145.019 120.762 143.578 117.246 142.619C111.889 141.159 109.004 139.181 103.045 138.908C95.2447 138.552 87.999 140.098 80.4031 140.328C73.0593 140.55 65.212 140.014 57.82 140.354C38.246 141.257 19.6093 141.756 0 141.358V127.524Z" fill="#F34818"/>

<!-- Wave band 5 — blue lower sections -->
<path class="w5" d="M542.902 129.475C551.215 129.48 560.251 131.27 569.014 131.38C578.336 131.498 588.071 133.46 597.651 131.894C617.399 129.095 637.363 131.28 657.234 131.477C668.264 131.586 679.45 131.55 690.497 131.642C698.405 131.805 706.497 136.357 714.373 136.465C718.652 136.524 723.683 135.241 727.966 135.316C735.707 135.451 743.574 136.195 751.298 136.361C756.489 136.473 762.623 135.807 767.862 135.541C771.908 135.336 777.589 133.176 781.615 132.968C788.567 132.61 794.791 133.162 801.845 132.359C804.424 132.065 811.584 130.632 813.199 130.769C821.078 131.437 828.999 132.934 837.001 133.808V212.798C835.848 211.962 834.393 211.131 833.13 210.421C818.324 202.094 804.228 192.538 789.625 183.928C788.518 183.276 783.748 181.759 782.567 182.265C772.358 186.635 762.316 192.193 751.993 196.485C738.661 202.157 729.732 174.238 720.495 177.083C708.508 180.777 695.634 187.66 683.688 192.286C675.747 189.501 669.11 185.975 660.732 183.306C651.496 186.179 636.076 192.877 627.62 197.33C619.589 201.563 614.767 205.054 605.706 208.879C601.231 200.545 600.777 195.517 597.332 187.137C592.763 176.021 583.228 152.654 573.575 145.677C567.199 141.068 555.609 148.753 547.725 150.856C545.923 146.556 543.92 134.769 542.902 129.475Z" fill="#013DA7"/>

<path class="w5" d="M0 141.358C19.6093 141.756 38.246 141.257 57.82 140.354C65.212 140.014 73.0593 140.55 80.4031 140.328C87.999 140.098 95.2447 138.552 103.045 138.908C109.004 139.181 111.889 141.159 117.246 142.619C120.762 143.578 127.026 145.019 130.588 145.561C139.618 146.937 149.572 145.606 158.786 145.878C163.614 146.021 168.821 147.396 173.318 147.391C183.083 147.382 193.175 146.987 202.904 146.059C208.184 145.556 214.355 143.723 219.612 143.895C224.812 144.065 230.834 150.45 236.018 150.392C242.764 150.318 251.751 150.986 258.293 150.4C268.193 149.513 279.926 147.977 289.902 150.278C273.237 160.002 262.393 173.843 253.42 190.549C249.676 197.519 247.174 202.772 241.863 208.734C232.69 202.178 224.341 194.369 216.094 186.698C211.857 182.757 207.531 177.721 202.557 174.764C200.849 173.748 198.853 173.47 196.899 173.773C183.299 175.877 162.188 215.848 155.098 217.253C153.497 217.571 150.807 216.275 149.298 215.639C143.113 213.032 137.39 209.343 131.305 206.506C119.324 200.92 105.46 196.347 94.6141 188.665C87.312 183.494 81.413 175.546 76.2994 168.312C73.6674 164.589 71.1454 160.234 67.5436 157.379C65.4532 155.721 63.0746 154.803 60.3911 155.28C48.6416 157.37 24.108 197.973 13.4282 206.237C9.57646 209.218 4.51686 210.555 0 212.229V141.358Z" fill="#013DA7"/>

<!-- White wave body — rises from below -->
<path class="wb" d="M508.097 79.3691C515.454 81.2304 521.494 85.3373 527.727 89.6572C534.429 95.7255 535.794 102.86 538.561 111.144C539.015 112.506 539.804 115.684 540.519 116.717C541.23 120.824 541.933 125.462 542.902 129.475C543.919 134.769 545.922 146.556 547.724 150.856C555.608 148.753 567.198 141.068 573.574 145.677C583.227 152.654 592.762 176.021 597.331 187.137C600.776 195.517 601.23 200.545 605.705 208.879C614.766 205.054 619.588 201.563 627.619 197.33C636.075 192.877 651.495 186.179 660.731 183.306C669.11 185.975 675.747 189.501 683.688 192.287C695.634 187.66 708.507 180.777 720.494 177.083C729.731 174.238 738.661 202.157 751.992 196.485C762.316 192.193 772.357 186.635 782.566 182.265C783.748 181.759 788.517 183.276 789.624 183.928C804.227 192.538 818.323 202.094 833.13 210.421C834.393 211.131 835.847 211.962 837 212.798V219.822C830.514 215.393 820.738 210.405 813.688 205.848C805.298 200.863 797.267 195.717 789.02 190.464C784.43 186.973 779.579 189.977 774.899 192.495C743.818 209.209 743.769 205.698 721.798 182.64C716.174 184.665 710.551 187.491 704.993 189.745C697.734 192.689 690.807 196.727 683.263 198.917C675.771 196.711 667.871 191.749 660.421 189.603C651.16 192.773 642.038 197.575 632.593 201.546C629.18 202.795 603.658 219.561 601.201 213.878C592.292 193.195 586.636 169.509 571.817 151.838C568.396 147.76 550.131 156.788 543.396 157.517C539.579 147.454 536.726 126.304 533.665 114.786C527.735 92.4823 525.119 95.6744 509.152 85.5878C502.143 90.637 496.16 97.7252 490.14 103.899C482.248 111.992 473.874 120.092 466.701 128.816C461.662 134.942 458.486 142.367 453.688 148.693C447.288 157.128 413.236 193.571 404.954 196.296C404.002 196.608 403.405 196.565 402.458 196.271C397.77 194.817 387.945 189.216 382.902 186.737C378.204 190.061 365.445 202.397 361.182 206.687C354.864 204.218 321.767 188.045 317.297 183.972C310.371 177.659 306.645 163.094 293.512 156.189C281.897 160.423 270.803 173.793 264.284 183.946C258.855 192.401 254.9 202.09 248.819 210.117C246.588 213.062 244.471 214.142 241.157 215.314C237.184 213.624 232.442 209.309 229.17 206.438C223.967 201.898 218.812 197.303 213.706 192.654C208.908 188.221 203.409 182.396 197.961 179.088C181.97 188.19 170.691 217.365 155.383 224.162C146.296 222.121 138.125 216.507 129.683 212.626C117.809 206.898 104.721 202.154 93.4514 195.307C80.9977 187.74 72.9318 170.924 62.7697 161.729C59.9673 159.193 42.0474 180.933 39.4272 184.163C32.2352 193.028 25.5634 204.91 16.1357 211.846C12.1694 214.783 4.66562 216.996 0 218.497V212.229C4.51686 210.555 9.57646 209.218 13.4282 206.237C24.108 197.973 48.6416 157.37 60.3911 155.28C63.0746 154.803 65.4532 155.721 67.5436 157.379C71.1454 160.234 73.6674 164.589 76.2994 168.312C81.413 175.547 87.312 183.494 94.6141 188.665C105.46 196.347 119.324 200.92 131.305 206.506C137.39 209.343 143.113 213.032 149.298 215.639C150.807 216.275 153.497 217.571 155.098 217.253C162.188 215.848 183.299 175.877 196.899 173.773C198.853 173.47 200.849 173.748 202.557 174.764C207.531 177.721 211.857 182.757 216.094 186.698C224.341 194.369 232.69 202.178 241.863 208.734C247.174 202.772 249.676 197.519 253.42 190.549C262.393 173.843 273.237 160.002 289.902 150.278C291.645 150.261 293.527 150.204 295.254 150.297C298.979 149.75 307.615 151.608 312.147 150.968C316.366 150.373 320.518 148.396 324.418 147.993C330.34 147.381 336.866 148.475 342.828 147.325C346.738 146.57 351.764 143.98 355.577 143.562C364.988 142.531 374.858 143.372 384.343 142.831C388.739 142.581 393.083 139.994 397.166 139.481C403.942 138.629 411.863 139.483 418.692 139.086C433.528 138.221 438.726 133.873 453.758 137.191C454.567 136.089 456.239 132.956 457.072 131.598C459.271 128.016 461.151 125.397 463.75 122.119C474.36 111.973 486.277 99.4132 496.209 88.5956C499.956 84.8257 503.034 81.1352 508.097 79.3691Z" fill="#FEFEFE"/>

<!-- Blue wave detail on white body -->
<path class="wd" d="M295.254 150.297C298.979 149.75 307.615 151.608 312.148 150.968C316.366 150.373 320.518 148.396 324.419 147.993C330.34 147.381 336.866 148.475 342.828 147.325C346.738 146.57 351.764 143.98 355.577 143.562C364.988 142.531 374.858 143.372 384.343 142.831C388.739 142.581 393.083 139.994 397.166 139.481C403.943 138.629 411.863 139.483 418.692 139.086C433.528 138.221 438.726 133.873 453.758 137.191C446.549 150.139 434.255 161.186 423.928 171.797C418.206 177.676 410.563 185.649 404.059 190.344C398.25 187.672 384.74 179.173 379.889 181.571C374.697 184.139 365.173 194.862 360.215 199.142C353.869 196.922 325.65 183.456 321.688 179.861C319.126 177.536 317.358 174.513 315.501 171.629C310.405 163.714 304.537 153.509 295.254 150.297Z" fill="#013DA7"/>

<!-- Letters — staggered left to right by x position -->

<!-- Letter 1 — leftmost (~x 57) -->
<g class="l1">
  <path d="M93.652 294.56C102.786 286.594 114.941 283.94 126.313 288.334C148.443 296.884 153.085 324.474 145.285 344.576C136.697 366.709 115.689 376.405 93.4354 367.65C93.6802 371.365 93.6618 375.872 93.7444 379.648C93.6537 380.959 93.4411 381.994 93.9528 383.171C95.8757 384.919 101.123 384.103 104.312 384.117L104.202 393.59C88.6059 393.415 73.0082 393.424 57.4121 393.615L57.1816 384.102C58.9987 384.084 60.9293 383.847 62.748 383.663C63.6157 358.365 62.8563 329.927 62.9593 304.298C61.1917 304.676 59.0502 304.953 57.238 305.235L57.2237 295.652C68.388 293.702 81.8208 288.443 93.0468 286.581C93.9549 287.532 93.6479 292.857 93.652 294.56Z" fill="#FEFEFE"/>
  <path d="M97.0378 303.298C97.4637 303.265 97.89 303.238 98.3166 303.216C121.131 302.08 123.494 344.124 112.494 355.835L112.224 356.056C106.477 360.696 94.7549 359.106 93.9624 350.991C92.85 339.598 93.8827 327.372 93.4434 315.883C93.3269 312.841 93.1009 307.389 93.4896 304.453C94.4663 303.447 95.578 303.497 97.0378 303.298Z" fill="black"/>
</g>

<!-- Letter 2 — (~x 169) -->
<g class="l2">
  <path d="M169.129 282.627C171.84 283.292 176.068 284.169 178.435 285.371C179.532 287.298 178.42 286.843 179.002 288.908C183.604 288.716 190.407 285.931 196.501 286.072C205.51 286.174 214.911 287.115 221.827 293.594C231.126 302.307 229.358 315.839 229.361 327.461C229.32 337.769 229.368 348.077 229.502 358.385L234.577 358.614L234.543 368.515C223.191 368.347 211.839 368.254 200.487 368.235C200.233 365.645 199.803 363.566 199.298 361.025C190.736 366.72 188.259 369.275 177.646 370.563C169.556 370.773 162.781 369.629 156.608 363.885C146.143 353.917 146.862 335.067 156.564 324.878C166.534 314.407 184.899 316.367 198.602 316.084C198.67 312.887 198.687 311.23 198.294 308.065C190.223 296.96 176.645 303.101 169.529 312.031C165.788 311.1 162.801 310.376 159.197 309.053C160.46 302.788 166.545 289.753 169.129 282.627Z" fill="#FEFEFE"/>
  <path d="M191.586 326.161L198.636 325.824C198.66 327.767 198.739 329.794 198.705 331.738C198.538 341.284 201.235 355.671 186.765 354.044C175.913 350.49 175.256 329.745 191.586 326.161Z" fill="black"/>
</g>

<!-- Letter 3 — (~x 231) -->
<g class="l3">
  <path d="M261.991 267.499L270.597 269.109C269.86 275.964 269.791 281.549 269.75 288.391C274.609 288.175 279.672 288.342 284.549 288.425C283.76 293.128 283.828 297.403 281.583 301.664C278.001 301.022 273.684 301.284 269.773 300.839C269.662 315.295 269.655 329.897 269.724 344.362C269.734 346.404 270.344 351.959 271.947 353.263C274.092 355.006 280.505 354.21 283.417 354.036C284.217 356.246 285.668 359.301 286.654 361.521C282.215 366.219 277.849 368.857 271.416 370.103C260.356 371.62 243.069 371.811 240.633 357.397C239.449 350.396 239.904 341.95 239.92 334.739L239.901 301.182C237.145 301.565 234.052 301.539 231.25 301.596L231.475 292.037C247.149 288.056 253.858 280.3 261.991 267.499Z" fill="#FEFEFE"/>
</g>

<!-- Letter 4 — (~x 307) -->
<g class="l4">
  <path d="M307.454 282.566C309.916 283.204 315.083 283.906 316.488 285.965C317.21 287.024 316.658 288.4 316.402 289.682C329.335 285.314 349.726 283.362 360.291 293.725C363.332 296.768 365.469 300.595 366.463 304.78C367.916 310.764 367.439 321.708 367.407 328.115C367.337 338.18 367.337 348.245 367.407 358.309L373.031 358.892C373.069 362.443 373.001 365.027 372.732 368.565C361.328 368.332 349.866 368.396 338.476 367.999C338.384 365.671 338.057 363.157 337.805 360.827C329.646 366.595 325.728 369.284 315.659 370.562C315.375 370.573 315.091 370.582 314.806 370.588C286.979 371.165 278.739 342.788 295.264 323.924C303.882 314.088 324.387 315.874 337.089 315.888C336.797 307.514 334.992 301.927 324.931 302.249C317.037 302.501 312.617 306.435 307.562 312.016C303.714 311.077 300.913 310.38 297.207 309.046C299.3 302.632 304.468 288.118 307.454 282.566Z" fill="#FEFEFE"/>
  <path d="M329.744 326.2C331.834 326.041 334.612 326.087 336.757 326.06C336.839 332.857 338.489 346.7 333.379 351.991C331.2 354.248 328.274 354.32 325.294 354.182C314.071 350.249 313.996 328.825 329.744 326.2Z" fill="black"/>
</g>

<!-- Letter 5 — (~x 443) -->
<g class="l5">
  <path d="M443.737 273.535C446.5 273.453 448.821 273.553 451.572 273.681C449.847 278.966 449.018 282.224 448.18 287.706C444.845 287.669 441.114 287.174 438.355 288.907C437.133 291.481 441.424 294.361 443.308 295.975C453.709 304.883 458.217 320.192 450.975 332.531C442.707 346.619 426.004 349.974 411.426 353.912L411.304 354.371C412.636 355.05 423.904 356.414 426.711 357.044C434.509 358.734 445.127 362.084 449.541 369.275C454.682 377.644 450.432 387.493 442.63 392.211C430.365 399.627 413.609 399.933 400.182 396.914C384.214 392.735 383.325 376.599 397.971 369.912C399.839 369.059 401.855 368.348 403.781 367.629C396.737 367.111 388.457 367.336 381.382 367.412C379.862 363.997 378.666 360.804 377.361 357.297C387.709 354.844 392.308 352.89 402.003 348.724C392.61 345.256 384.359 343.556 378.079 334.762C368.507 321.357 373.081 302.21 386.426 293.193C399.488 284.367 413.915 285.319 428.714 288.117C432.793 278.828 432.466 274.018 443.737 273.535Z" fill="#FEFEFE"/>
  <path d="M406.194 296.259C422.174 294.935 428.124 320.588 426.8 332.744C426.391 336.458 424.229 338.945 421.266 340.9C406.879 345.411 397.925 312.523 401.34 302.297C402.528 298.739 402.895 298.208 406.194 296.259Z" fill="black"/>
  <path d="M412.917 372.013C421.614 373.375 429.759 384.439 421.638 390.622C414.478 394.603 409.75 386.1 411.76 379.9C412.296 378.244 412.68 373.934 412.917 372.013Z" fill="black"/>
</g>

<!-- Letter 6 — (~x 502) -->
<g class="l6">
  <path d="M502.278 286.195C526.615 285.181 550.197 298.645 552.637 324.602C553.703 335.327 550.413 346.031 543.506 354.307C534.65 365.004 523.149 369.259 509.634 370.523C495.326 371.082 482.759 368.971 471.466 359.507C454.845 345.575 453.3 317.196 467.604 301.09C476.849 290.681 488.762 287.133 502.278 286.195Z" fill="#FEFEFE"/>
  <path d="M496.794 298.429C506.827 297.504 513.526 304.76 516.816 313.52C521.033 324.756 527.507 352.445 512.635 358.396C503.545 360.478 496.046 350.798 493.365 343.301C489.409 332.258 482.212 304.264 496.794 298.429Z" fill="black"/>
</g>

<!-- Letter 7 — (~x 613) -->
<g class="l7">
  <path d="M613.478 286.572C613.944 286.505 614.41 286.459 614.88 286.434C625.902 285.87 637.538 288.674 640.317 301.271C642.033 309.058 641.428 319.237 641.432 327.355C641.445 337.934 641.514 348.125 641.927 358.708L647.138 358.541L647.232 368.499C633.116 368.123 618.582 368.324 604.45 368.393L604.523 358.396L610.96 358.274C611.271 347.938 611.385 337.596 611.308 327.255C611.32 320.167 613.715 306.327 603.837 305.682C597.11 305.242 593.047 307.904 588.135 311.915L588.127 323.975L588.151 358.462L594.09 358.482C594.286 361.746 594.159 365.238 594.102 368.525C580.157 368.246 566.209 368.226 552.264 368.467L552.223 358.372L557.405 358.294C557.691 340.429 557.324 322.296 557.548 304.318L551.798 304.258C552.035 300.992 552.076 299.065 551.77 295.835C563.429 293.786 576.307 289.212 588.384 286.514C588.572 290.627 588.499 295.381 588.531 299.543C597.204 292.843 602.349 288.167 613.478 286.572Z" fill="#FEFEFE"/>
</g>

<!-- Letter 8 — (~x 652) -->
<g class="l8">
  <path d="M689.046 286.578L689.156 286.653C689.753 287.638 689.912 350.446 689.973 358.632C690.68 358.604 691.392 358.588 692.099 358.585C696.705 358.6 695.246 365.041 695.196 368.477C681.411 368.047 666.6 368.307 652.729 368.332C651.986 367.26 652.317 360.153 652.337 358.367L658.766 358.315C659.514 341.375 659.093 321.818 659.064 304.702L652.66 304.918L653.04 295.782C664.541 293.592 677.067 288.848 689.046 286.578Z" fill="#FEFEFE"/>
</g>

<!-- Letter 9 — (~x 715) -->
<g class="l9">
  <path d="M715.276 282.596C717.172 282.846 723.127 284.442 724.745 285.323C725.554 286.44 725.334 287.736 725.325 289.197C726.625 289.368 732.882 287.388 734.995 287.001C745.552 285.065 759.733 285.866 768.246 293.175C777.286 300.938 775.746 315.216 775.758 326.086C775.766 336.779 775.619 347.579 776.069 358.396L780.969 358.671L780.985 368.508C771.512 368.396 755.368 368.668 746.557 367.844C746.365 365.565 746.136 363.29 745.87 361.019C737.349 366.896 734.21 369.315 723.67 370.577C721.954 370.578 720.115 370.646 718.414 370.498C704.11 369.252 694.87 358.515 694.902 344.426C694.902 336.806 697.947 329.501 703.358 324.136C713.629 313.853 731.243 315.864 745.278 315.837C745.163 306.496 742.625 301.516 731.832 302.344C725.027 302.866 720.115 306.935 715.999 312.102C712.39 311.3 708.863 310.154 705.471 308.68C707.67 301.321 712.525 290.661 715.276 282.596Z" fill="#FEFEFE"/>
  <path d="M737.998 326.216C740.062 326.04 742.89 326.078 745.015 326.043C745.109 332.862 746.822 346.732 741.652 352.007C739.453 354.248 736.723 354.303 733.744 354.191C722.39 350.651 721.977 329.257 737.998 326.216Z" fill="black"/>
</g>

<!-- Accent glyph (~x 676, above letters) -->
<g class="l10">
  <path d="M676.311 261.636C679.335 261.313 684.281 262.271 686.712 264.144C690.386 266.979 690.652 269.064 691.318 273.205C688.086 282.544 681.326 283.803 672.829 285.982C654.61 289.003 650.425 265.456 676.311 261.636Z" fill="#FEFEFE"/>
  <path d="M783.841 268.985C796.597 269.497 799.474 288.813 782.546 291.257C768.977 289.794 767.146 271.61 783.841 268.985Z" fill="#FEFEFE"/>
  <path d="M781.552 270.917C785.394 270.69 790.306 272.595 791.884 276.172C795.014 283.253 789.284 286.888 784.253 289.518C773.954 290.318 767.706 277.256 781.552 270.917Z" fill="black"/>
  <path d="M781.333 273.434C788.154 273.225 787.312 275.219 787.067 280.704C787.005 281.991 787.655 283.599 786.985 284.654C785.992 284.216 785.587 283.219 784.999 282.227C783.56 282.151 783.061 282.078 781.623 282.439C780.184 283.272 779.449 285.169 778.668 286.699C778.913 281.505 776.866 276.845 781.333 273.434Z" fill="#FEFEFE"/>
  <path d="M780.824 275.035C782.206 274.933 783.563 274.652 784.687 275.424C785.467 276.7 785.128 278.197 785.009 279.789C783.632 279.89 782.145 280.185 781.017 279.467C780.269 278.237 780.665 276.573 780.824 275.035Z" fill="black"/>
</g>

</g>
<defs>
<clipPath id="clip0_46_28">
<rect width="837" height="465" fill="white"/>
</clipPath>
</defs>
</svg>
