<svg width="738" height="414" viewBox="0 0 738 414" fill="none" xmlns="http://www.w3.org/2000/svg">
<g clip-path="url(#clip0_46_8)">
<path d="M0 0H738V414H0V0Z" fill="white"/>
<path d="M408.29 139.31C410.985 140.285 416.567 143.413 417.998 145.743C424.599 156.489 423.965 170.696 428.39 182.729C433.561 182.106 437.377 180.845 442.184 178.965C445.983 177.481 447.15 180.031 448.923 182.914C455.078 192.926 458.425 203.712 462.422 214.647C463.092 216.482 464.634 217.545 466.721 217.436C473.697 216.058 479.564 211.148 485.989 208.309C491.127 206.006 495.747 204.13 500.662 202.128C505.221 204.1 509.714 205.989 514.136 208.251C521.837 204.652 529.624 201.248 537.494 198.042C542.182 203.919 546.65 209.607 554.69 210.723C562.545 207.519 568.127 204.964 575.651 201.056C577.45 202.127 585.215 207.522 586.451 207.891C591.092 209.276 602.162 218.123 605.604 219.007C628.529 224.901 653.909 223.19 677.454 223.502C684.481 223.595 694.503 223.795 701.356 222.996C695.018 226.609 688.895 228.794 682.488 232.017C681.775 232.375 679.069 235.271 678.326 236.038C680.287 238.642 682.488 241.073 686.002 241.114C699.382 241.27 713.576 238.652 726.394 234.934C726.188 235.45 725.972 235.962 725.741 236.469C716.513 256.738 658.558 266.73 638.126 270.341C618.177 273.867 593.345 275.716 574.131 282.835C565.807 285.92 556.726 295.327 549.389 300.932C534.474 312.324 516.226 323.976 498.583 330.519C501.142 326.422 503.718 326.16 499.52 321.775C499.152 314.649 501.484 314.368 502.9 308.587C504.875 300.533 506.792 295.754 511.44 288.677C515.293 286.532 523.336 286.219 524.323 282.943C523.811 279.676 520.301 277.613 517.17 277.628C508.774 277.668 502.803 282.82 497.026 288.203C493.354 288.223 489.153 288.773 485.473 289.17C464.242 291.465 443.1 296.059 421.641 295.154C415.072 294.876 408.679 293.909 402.175 293.006C400.56 294.101 399.007 295.332 397.447 296.506C380.456 309.277 363.498 322.28 344.897 332.657C338.763 336.078 332.389 339.546 325.598 341.4C318.868 330.341 322.491 319.819 319.489 309.875C320.783 308.062 322.339 306.104 323.7 304.316C323.295 295.817 332.174 295.047 337.762 291.133C341.015 288.855 342.007 287.525 343.809 284.166C340.711 270.597 332.665 280.06 325.613 282.645C322.174 283.906 317.591 284.476 313.955 284.951C298.519 286.302 282.507 283.357 267.18 281.549C266.148 281.427 261.07 280.916 260.374 281.312C242.347 291.562 223.224 316.559 201.145 317.412C197.569 310.945 195.874 311.692 191.751 307.152C187.422 302.385 181.755 296.621 177.901 291.552C176.397 289.573 175.314 284.386 174.095 281.836C171.096 275.563 162.426 273.857 156.156 271.71C162.343 259.585 182.803 257.573 194.268 253.939C199.245 252.361 203.359 250.127 207.938 247.705C193.476 241.177 179.985 234.325 164.614 229.99C133.318 221.164 107.057 240.804 83.1694 258.506L60.7281 275.132C49.6293 283.357 38.8793 291.703 25.028 295.002C23.6446 295.332 22.39 295.642 21.1313 294.861C18.5514 291.781 21.331 284.921 20.9027 281.052C21.0733 280.045 18.3621 276.784 18.3595 276.183C18.3346 270.577 20.6853 268.576 16.3616 263.667C17.4385 262.348 18.5615 261.115 18.8495 259.47C19.6158 255.092 16.5835 256.506 15.9723 254.697C14.162 249.339 16.5474 246.622 13.0898 241.475C17.8747 234.998 19.4071 230.734 21.0758 222.73L72.7765 221.636C80.8758 221.458 90.3065 221.89 98.2876 220.635C101.997 220.052 108.675 216.769 111.542 214.295C116.617 209.916 120.446 203.592 124.69 198.314C128.881 193.101 132.681 189.037 137.502 184.418C140.936 189.028 144.011 193.798 147.808 198.144C149.673 200.277 151.764 202.691 154.124 204.284C157.783 206.755 190.068 222.447 192.897 222.6C194.735 222.7 196.35 222.304 197.825 221.178C201.379 218.463 204.076 213.938 206.801 210.392C210.804 205.186 215.065 199.823 219.953 195.432C225.493 200.927 239.345 214.304 245.706 217.95C251.711 215.702 252.905 212.921 255.943 207.538C258.264 203.426 260.568 198.969 263.28 195.119C267.069 189.785 271.888 185.264 277.453 181.823C285.122 186.117 287.051 195.078 291.415 198.406C297.39 202.962 312.154 209.317 319.443 212.874C323.068 208.261 327.939 204.8 332.023 200.434C335.891 202.572 340.882 204.968 344.873 206.822C354.003 202.203 370.215 183.791 377.415 175.37C378.907 173.625 381.004 168.043 383.566 165.18C391.541 156.277 399.998 147.884 408.29 139.31Z" fill="black"/>
<path d="M377.339 69.2338C378.485 69.3091 379.623 69.4342 380.758 69.6085C413.489 74.5776 439.881 100.557 458.785 126.125C459.535 127.051 461.711 129.812 462.551 130.33C466.028 132.468 474.208 133.354 478.215 133.754C485.206 134.452 492.176 134.903 499.141 135.569C514.398 137.033 529.634 138.691 544.852 140.543C551.396 141.335 563.46 142.443 569.5 143.812C586.425 145.752 603.236 148.615 619.848 152.388C624.695 153.507 631.913 155.116 636.54 156.78C643.231 158.374 664.229 166.138 669.216 170.044C670.539 170.556 671.825 171.172 673.065 171.864C686.747 179.506 699.644 188.536 712.473 197.525C716.729 200.506 722.224 204.009 725.943 207.544C727.806 209.317 728.75 212.899 729.489 215.364C719.622 214.142 717.33 217.753 708.927 218.256C704.379 218.527 696.866 218.355 691.915 218.426C670.488 218.909 649.051 218.418 627.668 216.953C622.338 216.638 614.933 216.408 609.726 215.276C608.187 214.942 603.452 212.098 601.827 211.146C597.355 208.549 592.912 205.903 588.501 203.209C577.896 196.59 577.096 193.921 565.55 200.562C562.758 202.169 556.776 204.562 553.788 205.66L553.626 205.587C545.14 201.679 544.909 198.06 538.567 192.565C531.58 194.692 521.22 199.581 514.643 202.759C510.114 200.58 505.472 198.643 500.734 196.957C495.711 198.6 486.767 202.28 482.042 204.716C476.471 207.587 472.987 210.112 466.735 212.62C465.733 209.462 464.691 206.318 463.607 203.187C461.102 196.084 454.101 178.024 447.146 173.911C443.798 171.933 435.935 176.098 432.004 177.585C431.009 174.517 430.393 171.468 429.705 168.324C428.97 164.845 428.361 161.159 427.719 157.646C427.175 154.383 426.17 151.263 425.078 148.153C420.995 139.564 416.253 136.84 407.432 133.691C403.331 137.018 396.581 144.139 392.625 148.1C382.326 147.466 319.97 148.873 316.631 146.66C322.048 145.486 327.978 145.369 333.476 144.531C334.702 144.611 336.423 142.046 335.496 141.063C330.605 135.874 321.216 136.461 314.791 134.38C313.51 133.965 313.267 133.674 312.838 132.788C313.597 131.107 316.637 130.225 318.432 129.502C329.35 124.894 339.154 118.453 346.946 109.416C349.309 106.676 352.39 102.114 354.631 99.0652C355.96 98.6145 355.572 99.156 357.378 99.6749C358.288 98.5713 358.114 95.2607 358.807 93.8731C360.503 90.4768 363.379 87.0859 365.732 84.1054C367.177 86.6845 367.631 87.3161 369.562 89.4651C370.741 81.1159 369.177 74.5823 377.339 69.2338Z" fill="#EF6039"/>
<path d="M429.705 168.324C435.723 168.997 441.82 169.334 447.849 169.648C451.142 169.819 455.917 170.426 459.085 170.042C473.106 168.342 486.792 169.082 500.86 169.67C506.55 169.508 512.352 169.9 518.031 169.58C522.225 169.345 528.647 172.519 531.649 172.278C541.328 171.501 550.841 172.085 560.542 172.241C565.017 172.313 569.266 170.896 573.698 170.625C577.442 170.186 582.415 170.902 585.917 170.238C595.989 168.327 605.337 169.224 615.56 169.403C626.835 169.607 638.111 169.75 649.39 169.832C653.941 169.897 665.231 170.486 669.216 170.044C670.539 170.556 671.825 171.172 673.065 171.864C686.747 179.506 699.644 188.536 712.473 197.525C716.729 200.506 722.224 204.009 725.943 207.544C727.806 209.317 728.75 212.899 729.489 215.364C719.622 214.142 717.33 217.753 708.927 218.256C704.379 218.528 696.866 218.355 691.915 218.426C670.488 218.909 649.051 218.418 627.668 216.953C622.338 216.638 614.933 216.408 609.726 215.276C608.187 214.942 603.452 212.098 601.827 211.146C597.355 208.549 592.912 205.903 588.501 203.209C577.896 196.59 577.096 193.921 565.55 200.562C562.758 202.169 556.776 204.562 553.789 205.66L553.626 205.587C545.14 201.679 544.91 198.06 538.567 192.565C531.58 194.692 521.22 199.581 514.644 202.759C510.114 200.58 505.473 198.643 500.734 196.957C495.711 198.6 486.767 202.28 482.043 204.716C476.472 207.587 472.987 210.112 466.735 212.62C465.733 209.462 464.692 206.318 463.607 203.187C461.103 196.084 454.101 178.024 447.146 173.911C443.798 171.933 435.936 176.098 432.004 177.585C431.01 174.517 430.393 171.468 429.705 168.324Z" fill="#057CC6"/>
<path d="M377.338 69.2338C378.484 69.3091 379.623 69.4342 380.758 69.6085C413.489 74.5776 439.881 100.557 458.785 126.125C448.764 126.056 439.095 125.151 429.117 125.068C426.112 125.043 421.391 127.127 418.703 126.989C409.197 126.501 400.177 128.545 390.956 129.187C376.564 130.189 361.796 129.898 347.376 130.027C339.585 130.05 332.123 130.463 324.3 129.548C322.598 129.35 319.938 129.803 318.432 129.502C329.35 124.894 339.154 118.453 346.946 109.416C349.308 106.676 352.389 102.114 354.631 99.0652C355.959 98.6145 355.572 99.156 357.378 99.6749C358.288 98.5713 358.114 95.2607 358.807 93.8731C360.503 90.4768 363.378 87.0859 365.731 84.1054C367.176 86.6845 367.63 87.3162 369.562 89.4651C370.74 81.1159 369.176 74.5823 377.338 69.2338Z" fill="#4D2393"/>
<path d="M318.432 129.502C319.939 129.803 322.599 129.35 324.3 129.548C332.123 130.463 339.585 130.05 347.377 130.027C361.797 129.898 376.564 130.189 390.956 129.187C400.178 128.545 409.197 126.501 418.703 126.989C421.392 127.127 426.112 125.043 429.118 125.068C439.096 125.151 448.764 126.056 458.785 126.125C459.535 127.052 461.711 129.812 462.551 130.33C466.028 132.468 474.208 133.354 478.215 133.754C485.206 134.452 492.176 134.903 499.141 135.569C514.398 137.033 529.634 138.691 544.852 140.543C551.396 141.335 563.46 142.443 569.5 143.812C568.948 144.352 568.375 144.685 567.604 144.723C557.273 145.213 546.898 145.339 536.553 145.51C525.627 145.626 514.734 146.521 503.811 146.565C498.46 146.587 493.026 146.093 487.693 146.162C481.376 146.243 475.181 146.742 468.836 146.639C462.176 146.531 455.503 146.471 448.843 146.425C443.6 146.51 438.285 147.648 433.031 147.845C430.368 147.945 427.741 148.111 425.078 148.153C420.995 139.564 416.253 136.84 407.432 133.691C403.331 137.019 396.581 144.139 392.625 148.1C382.326 147.467 319.97 148.873 316.631 146.66C322.048 145.486 327.978 145.369 333.476 144.531C334.702 144.611 336.423 142.046 335.496 141.063C330.605 135.874 321.216 136.461 314.791 134.38C313.51 133.965 313.267 133.674 312.838 132.788C313.597 131.107 316.637 130.225 318.432 129.502Z" fill="#057CC6"/>
<path d="M569.5 143.812C586.426 145.752 603.236 148.615 619.848 152.388C624.695 153.507 631.913 155.116 636.54 156.78C632.37 157.316 627.026 156.949 622.749 156.997C610.032 157.155 597.362 155.802 584.671 155.581C581.849 155.77 576.692 155.256 574.138 155.936C561.875 159.199 550.196 156.797 537.983 156.908C528.405 156.995 519.649 157.717 509.912 156.433C506.103 155.93 500.309 157.424 496.287 156.978C488.669 156.481 481.87 154.97 474.162 154.861C465.311 154.736 468.263 159.159 463.495 159.469C452.479 160.185 438.732 158.601 427.719 157.646C427.175 154.383 426.17 151.263 425.078 148.153C427.741 148.111 430.368 147.945 433.031 147.845C438.285 147.648 443.6 146.51 448.843 146.425C455.503 146.471 462.176 146.531 468.836 146.639C475.181 146.742 481.376 146.243 487.693 146.162C493.026 146.093 498.46 146.587 503.811 146.565C514.734 146.521 525.627 145.626 536.553 145.51C546.899 145.339 557.273 145.213 567.604 144.723C568.376 144.685 568.948 144.352 569.5 143.812Z" fill="#4D2393"/>
<path d="M12.1375 122.802C11.2925 120.035 9.86488 116.647 10.9122 113.97C12.0152 113.399 13.1729 113.399 14.3874 113.294C31.854 111.79 49.1138 122.408 62.6399 132.711C69.6466 137.255 78.7365 144.877 85.9096 150.113C93.2338 154.999 99.4589 158.508 106.688 163.037L121.965 170.398C123.495 171.116 128.724 173.39 129.861 174.156C143.616 178.524 146.504 176.56 160.193 173.047C164.673 174.055 168.909 175.319 173.379 176.2C180.804 177.663 187.562 177.082 194.852 177.365C201.163 177.61 204.906 178.327 211.541 178.019C218.78 177.683 226.21 176.679 233.283 176.626C236.982 176.598 239.391 179.866 244.697 180.174C250.763 180.526 267.17 178.22 271.83 179.239C263.177 186.287 258.923 191.182 253.72 201.114C251.996 204.404 248.963 209.676 246.648 212.445C241.22 208.702 236.122 203.544 231.221 199.229C229.195 197.446 222.275 190.042 219.733 190.946C209.297 194.657 201.963 210.644 194.452 217.785C189.218 216.668 184.289 213.197 179.466 210.919C172.134 207.457 160.689 203.83 154.886 198.436C149.528 193.457 146.164 186.536 141.357 181.959C140.237 180.893 138.809 179.903 137.191 180.013C130.216 180.486 115.817 202.835 110.556 208.373C108.791 210.232 106.001 212.911 103.568 213.662C98.8218 215.128 92.9898 214.932 88.0743 215.117C74.8883 215.613 61.7344 215.306 48.5516 215.56C44.6508 215.635 40.8037 216.197 36.917 216.437C31.7495 216.758 26.5316 216.781 21.3547 216.908C22.2003 211.548 24.2096 202.994 25.5032 197.692C19.1793 191.599 17.5747 183.078 15.422 174.84C14.2329 170.621 13.0839 167.05 11.3223 163.045C10.2001 161.246 10.7503 153.253 10.8048 150.651C10.7876 146.804 10.8546 143.375 12.8337 139.949L11.819 132.91C11.0711 127.385 10.5265 127.637 12.1375 122.802Z" fill="#057CC6"/>
<path d="M167.44 149.638C167.492 149.16 167.775 146.347 167.868 146.215C171.336 141.272 188.97 147.307 191.73 148.423C200.493 151.876 208.811 158.068 218.252 159.419C226.038 160.533 235.526 156.852 243.53 155.428C249.184 154.423 253.985 153.572 259.738 152.754C278.629 150.089 297.604 148.057 316.631 146.66C319.97 148.873 382.326 147.467 392.625 148.1C391.079 149.715 381.969 159.576 380.877 160.439C376.957 165.394 376.33 167.888 373.479 172.056C369.782 177.2 349.779 197.911 344.887 201.218C340.824 198.982 335.598 196.21 331.07 195.137C328.293 196.8 320.54 204.276 317.834 206.8L317.542 206.593C311.786 202.576 298.154 198.105 294.521 194.187C292.064 191.536 287.823 184.439 283.943 180.14C278.785 176.461 277.304 176.518 271.831 179.239C267.171 178.22 250.764 180.526 244.698 180.174C239.392 179.866 236.983 176.598 233.284 176.626C226.211 176.679 218.781 177.683 211.542 178.019C204.907 178.327 201.164 177.61 194.852 177.365C187.563 177.082 180.804 177.663 173.379 176.2C168.91 175.319 164.674 174.055 160.193 173.047C164.028 171.029 172.778 169.391 177.157 168.867C176.247 167.097 174.566 164.689 173.439 162.969C170.736 158.73 169.285 158.799 165.228 156.122C164.159 155.416 164.08 154.913 163.908 153.863C164.297 152.316 166.204 150.628 167.44 149.638Z" fill="#EF6039"/>
<path d="M283.943 180.14C285.168 180.216 286.762 180.363 287.992 180.314C291.106 180.188 294.392 178.706 297.51 178.525C300.922 178.326 304.403 178.829 307.791 178.396C309.969 178.118 311.996 176.557 314.25 176.465C321.231 175.454 329.425 176.584 336.251 175.148C343.038 173.72 348.595 173.817 355.426 173.344C361.566 172.919 367.216 172.064 373.479 172.056C369.782 177.2 349.779 197.911 344.887 201.218C340.824 198.982 335.598 196.21 331.069 195.137C328.293 196.8 320.54 204.276 317.834 206.8L317.541 206.593C311.786 202.576 298.153 198.105 294.52 194.187C292.064 191.536 287.823 184.439 283.943 180.14Z" fill="#057CC6"/>
<path d="M725.994 230.317C729.886 230.338 732.127 233.295 730.707 236.989C727.079 246.452 718.711 251.892 710.045 256.189C679.559 271.303 644.897 274.818 611.734 280.074C602.491 281.542 584.433 284.316 576.062 287.711C564.448 293.34 554.942 303.622 544.488 311.051C533.155 319.105 521.311 326.301 508.972 332.648C505.725 334.319 501.124 336.687 497.502 335.612C496.601 334.883 496.349 333.937 495.96 332.853C491.787 321.278 497.257 305.317 502.526 294.839C484.76 294.463 470.645 296.526 453.103 298.734C444.044 299.874 434.83 300.006 425.76 300.791C419.183 301.361 408.903 299.007 403.472 300.34C401.303 300.872 389.804 309.419 387.314 311.382C383.656 314.265 377.556 317.833 373.941 320.623C367.732 325.415 328.741 349.916 322.631 348.73C319.066 345.425 313.402 316.943 314.995 311.185C316.145 307.029 320.43 294.879 324.433 292.478C331.622 288.167 334.736 289.153 338.831 281.138C335.829 282.901 328.739 287.181 325.627 287.911C307.268 292.22 283.008 289.298 264.848 286.059C258.859 288.358 252.637 293.903 247.395 297.599C233.867 307.136 214.986 323.951 197.903 323.968C195.168 320.74 194.102 317.071 191.45 313.945C189.646 311.818 186.446 310.109 184.451 308.065C180.691 304.212 177.446 299.85 174.167 295.587C171.458 291.999 169.271 285.236 166.238 281.926C162.292 278.043 153.948 279.371 151.016 274.142C147.803 268.414 160.964 260.108 165.067 257.939C166.957 256.95 168.915 256.092 170.924 255.373C173.482 254.467 192.978 248.452 194.213 248.835C193.255 249.945 175.112 254.802 172.382 255.66C168.408 256.91 165.863 258.246 162.123 260.373C157.548 263.247 153.165 267.526 150.387 272.168C155.918 280.169 161.437 276.306 166.907 281.611C169.433 284.061 172.449 292.546 175.73 296.409C178.707 299.914 181.855 304.583 185.502 307.958C187.366 309.684 191.037 312.031 192.384 313.821C194.61 316.781 195.692 319.968 198.094 323.181C216.534 324.38 245.519 296.143 261.045 287.163C262.379 286.391 263.395 285.821 264.861 285.222C282.489 288.75 302.951 290.883 321.045 288.376C325.716 287.729 331.689 284.129 335.821 282.122C337.175 281.465 337.125 281.131 338.448 281.592C340.146 288.086 326.022 290.925 323.383 294.255C321.565 296.548 317.225 305.421 316.53 307.934C313.505 318.87 318.752 338.476 322.906 348.508C351.926 337.912 376.644 316.539 402.225 300.1C405.285 298.134 420.672 300.493 425.879 300.201C435.269 299.687 444.649 298.925 454.001 297.917C472.829 295.773 484.421 293.604 503.333 294.403C502.637 296.406 501.347 298.524 500.619 300.543C496.219 312.731 492.598 322.956 497.664 335.317C509.924 334.703 535.217 316.193 545.962 309.11C553.501 304.14 567.785 289.331 576.156 286.893C613.503 276.014 653.675 276.379 690.755 263.441C704.236 258.72 722.271 252.071 729.277 238.617C731.14 235.036 730.671 232.419 726.725 230.976C718.7 232.641 694.297 237.63 687.195 236.607L687.375 236.214C698.841 235.884 714.665 232.806 725.994 230.317Z" fill="#C5C3C9"/>
<path d="M376.668 65.581C404.913 65.7118 432.339 89.2503 450.468 108.882C454.003 112.729 457.474 116.637 460.875 120.602C462.439 122.402 465.387 125.999 467.095 127.405L467.362 127.62C470.497 128.349 477.769 129.023 481.242 129.427L508.658 132.56C530.445 135.03 552.214 137.667 573.965 140.471C612.111 145.553 646.33 151.138 679.893 171.361C689.385 177.079 740.191 205.182 732.598 218.458C730.552 220.265 722.408 218.86 718.638 220.154C708.577 223.606 700.188 230.114 690.236 233.797C688.542 234.425 687.039 235.24 685.266 235.613L685.41 235.09C686.474 234.352 687.691 233.781 688.931 233.387C699.183 230.118 707.767 222.971 717.983 219.742C722.285 218.383 727.716 218.451 732.195 218.33C732.206 216.062 732.141 214.414 731.507 212.217C730.768 209.678 729.456 207.341 727.676 205.385C724.869 202.239 720.318 199.1 716.948 196.48C703.115 185.725 689.025 177.098 673.62 168.793C659.094 161.383 642.41 154.065 626.558 150.078C605.812 144.861 581.687 142.052 560.318 139.381L467.099 128.495C463.538 125.304 455.142 115.136 451.319 110.895C432.865 90.4772 409.187 69.9311 380.794 66.5167C370.355 65.2614 363.732 80.0678 358.51 87.2985C351.689 96.7463 345.747 107.462 336.799 115.168C330.753 120.375 323.376 123.967 316.069 127.023C311.492 128.99 306.284 130.483 302.562 133.578C308.179 137.318 319.753 139.297 326.689 140.963L326.608 141.379C326.359 141.486 325.212 141.443 324.99 141.363C320.513 139.749 305.789 137.779 303.113 134.328C302.749 132.531 304.089 131.329 305.589 130.671C313.615 127.15 321.228 124.531 328.812 119.951C341.141 112.504 347.723 101.75 355.708 90.2909C360.957 82.7578 368.045 69.1103 376.668 65.581Z" fill="#C5C3C9"/>
</g>
<defs>
<clipPath id="clip0_46_8">
<rect width="738" height="414" fill="white"/>
</clipPath>
</defs>
</svg>
