<svg width="738" height="414" viewBox="0 0 738 414" fill="none" xmlns="http://www.w3.org/2000/svg">
<g clip-path="url(#clip0_46_61)">
<path d="M0 0H738V414H0V0Z" fill="white"/>
<path d="M435.812 89.5552C440.469 91.2413 450.115 96.6456 452.587 100.671C463.995 119.242 462.899 143.791 470.545 164.584C479.481 163.506 486.075 161.328 494.382 158.08C500.945 155.514 502.962 159.921 506.026 164.904C516.661 182.204 522.446 200.843 529.352 219.738C530.51 222.908 533.175 224.746 536.781 224.558C548.836 222.176 558.973 213.692 570.076 208.785C578.955 204.806 586.938 201.565 595.431 198.105C603.308 201.512 611.073 204.777 618.714 208.686C632.021 202.466 645.477 196.584 659.076 191.044C667.177 201.201 674.899 211.029 688.791 212.958C702.366 207.421 712.011 203.006 725.013 196.252C728.12 198.104 741.539 207.426 743.675 208.063C751.695 210.458 770.824 225.745 776.77 227.272C816.386 237.457 860.242 234.5 900.928 235.039C913.071 235.2 930.388 235.545 942.231 234.165C931.278 240.408 920.698 244.184 909.627 249.753C908.394 250.373 903.718 255.377 902.435 256.701C905.822 261.201 909.627 265.402 915.698 265.473C938.819 265.743 963.346 261.219 985.495 254.793C985.14 255.686 984.767 256.571 984.368 257.446C968.421 292.471 868.274 309.737 832.968 315.978C798.496 322.069 755.587 325.266 722.385 337.566C708.001 342.897 692.309 359.153 679.631 368.838C653.858 388.523 622.325 408.658 591.839 419.965C596.26 412.884 600.712 412.432 593.457 404.856C592.822 392.542 596.851 392.056 599.298 382.067C602.711 368.148 606.023 359.891 614.056 347.662C620.713 343.955 634.611 343.415 636.317 337.753C635.433 332.107 629.368 328.543 623.957 328.569C609.448 328.637 599.13 337.54 589.149 346.842C582.803 346.877 575.543 347.828 569.185 348.514C532.496 352.48 495.963 360.418 458.882 358.853C447.531 358.374 436.484 356.703 425.245 355.142C422.455 357.035 419.771 359.161 417.075 361.19C387.715 383.259 358.412 405.729 326.269 423.659C315.669 429.571 304.655 435.563 292.92 438.768C281.291 419.657 287.551 401.475 282.365 384.291C284.6 381.159 287.288 377.775 289.641 374.687C288.942 359.999 304.284 358.67 313.94 351.906C319.561 347.969 321.276 345.671 324.389 339.866C319.036 316.42 305.133 332.771 292.947 337.239C287.003 339.418 279.084 340.402 272.801 341.223C246.129 343.558 218.458 338.469 191.975 335.345C190.191 335.135 181.416 334.252 180.214 334.935C149.063 352.647 116.019 395.842 77.866 397.315C71.6858 386.141 68.7567 387.432 61.6319 379.587C54.1516 371.349 44.3592 361.39 37.6996 352.63C35.1005 349.211 33.2293 340.248 31.1227 335.841C25.9401 325.001 10.9589 322.052 0.124103 318.344C10.8163 297.391 46.1712 293.914 65.9814 287.634C74.5832 284.907 81.6906 281.047 89.6031 276.861C64.614 265.582 41.3012 253.742 14.7404 246.251C-39.34 230.999 -84.719 264.937 -125.996 295.527L-164.775 324.255C-183.954 338.469 -202.53 352.891 -226.465 358.592C-228.855 359.161 -231.023 359.698 -233.198 358.348C-237.656 353.026 -232.853 341.171 -233.593 334.486C-233.298 332.746 -237.983 327.11 -237.988 326.073C-238.031 316.384 -233.969 312.928 -241.44 304.444C-239.579 302.165 -237.639 300.034 -237.141 297.191C-235.817 289.628 -241.057 292.07 -242.113 288.945C-245.241 279.686 -241.119 274.991 -247.094 266.097C-238.826 254.904 -236.178 247.536 -233.294 233.705L-143.955 231.815C-129.96 231.507 -113.663 232.253 -99.8721 230.085C-93.4627 229.077 -81.9225 223.404 -76.969 219.13C-68.199 211.563 -61.5818 200.635 -54.2484 191.514C-47.0071 182.506 -40.4403 175.484 -32.1093 167.502C-26.1764 175.468 -20.8624 183.712 -14.3005 191.22C-11.0787 194.906 -7.46397 199.079 -3.38661 201.831C2.93616 206.1 58.7252 233.216 63.6133 233.482C66.789 233.654 69.5805 232.969 72.1286 231.023C78.2695 226.333 82.9297 218.513 87.6397 212.386C94.5559 203.389 101.92 194.122 110.365 186.535C119.94 196.03 143.876 219.144 154.868 225.445C165.243 221.56 167.306 216.755 172.556 207.454C176.567 200.348 180.548 192.646 185.235 185.994C191.782 176.776 200.11 168.964 209.726 163.019C222.977 170.439 226.312 185.923 233.852 191.673C244.178 199.546 269.69 210.527 282.285 216.675C288.548 208.704 296.965 202.723 304.022 195.179C310.706 198.872 319.331 203.013 326.227 206.217C342.004 198.235 370.019 166.419 382.46 151.867C385.038 148.851 388.662 139.206 393.089 134.259C406.869 118.874 421.484 104.372 435.812 89.5552Z" fill="black"/>
<path d="M382.328 -31.536C384.309 -31.4058 386.276 -31.1898 388.238 -30.8884C444.796 -22.3019 490.402 22.5897 523.068 66.7716C524.363 68.373 528.124 73.1435 529.575 74.0376C535.584 77.7322 549.719 79.2632 556.644 79.955C568.724 81.161 580.766 81.9399 592.803 83.0917C619.168 85.6202 645.495 88.4855 671.791 91.6864C683.099 93.0543 703.947 94.9689 714.383 97.3355C743.63 100.688 772.679 105.634 801.385 112.154C809.76 114.088 822.232 116.868 830.228 119.743C841.791 122.499 878.075 135.915 886.693 142.665C888.978 143.55 891.201 144.613 893.343 145.809C916.987 159.015 939.273 174.618 961.44 190.151C968.794 195.303 978.29 201.355 984.716 207.464C987.936 210.528 989.567 216.718 990.844 220.977C973.794 218.865 969.834 225.105 955.313 225.974C947.455 226.443 934.472 226.145 925.916 226.268C888.891 227.103 851.847 226.254 814.897 223.723C805.687 223.178 792.891 222.781 783.893 220.824C781.235 220.247 773.052 215.334 770.244 213.688C762.517 209.201 754.839 204.629 747.217 199.973C728.891 188.535 727.509 183.923 707.558 195.4C702.732 198.176 692.396 202.311 687.234 204.208L686.953 204.083C672.289 197.33 671.891 191.075 660.931 181.58C648.857 185.256 630.955 193.704 619.591 199.196C611.764 195.429 603.744 192.082 595.555 189.169C586.875 192.009 571.42 198.367 563.256 202.578C553.63 207.539 547.608 211.902 536.805 216.236C535.074 210.779 533.274 205.345 531.4 199.935C527.072 187.66 514.973 156.453 502.955 149.346C497.171 145.928 483.584 153.126 476.79 155.695C475.071 150.393 474.007 145.125 472.817 139.692C471.547 133.68 470.495 127.31 469.386 121.241C468.446 115.602 466.709 110.211 464.822 104.836C457.767 89.9941 449.572 85.2871 434.329 79.8466C427.243 85.5959 415.58 97.8996 408.743 104.745C390.946 103.65 283.196 106.08 277.425 102.256C286.787 100.228 297.033 100.026 306.533 98.577C308.652 98.7164 311.627 94.2834 310.025 92.5842C301.573 83.6179 285.349 84.6327 274.247 81.0371C272.032 80.3192 271.612 79.8161 270.871 78.2864C272.182 75.3812 277.435 73.857 280.538 72.6068C299.404 64.6441 316.345 53.5141 329.81 37.8988C333.893 33.1644 339.217 25.2807 343.09 20.0127C345.386 19.2338 344.716 20.1696 347.837 21.0662C349.409 19.1591 349.109 13.4385 350.306 11.0408C353.236 5.17193 358.206 -0.687566 362.272 -5.83789C364.769 -1.38117 365.553 -0.289711 368.891 3.4236C370.927 -11.0038 368.225 -22.2938 382.328 -31.536Z" fill="#EF6039"/>
<path d="M472.816 139.692C483.215 140.854 493.751 141.438 504.169 141.979C509.86 142.276 518.111 143.325 523.584 142.661C547.813 139.722 571.463 141.001 595.772 142.019C605.605 141.738 615.63 142.415 625.443 141.863C632.691 141.456 643.788 146.94 648.975 146.524C665.7 145.181 682.139 146.191 698.902 146.461C706.636 146.585 713.977 144.135 721.636 143.668C728.106 142.91 736.699 144.147 742.751 142.999C760.156 139.696 776.308 141.247 793.974 141.557C813.458 141.91 832.942 142.156 852.432 142.297C860.296 142.411 879.805 143.428 886.692 142.665C888.977 143.55 891.2 144.613 893.342 145.809C916.986 159.015 939.272 174.618 961.439 190.151C968.793 195.303 978.289 201.355 984.715 207.464C987.935 210.528 989.566 216.718 990.843 220.977C973.793 218.865 969.833 225.106 955.312 225.974C947.454 226.444 934.471 226.145 925.915 226.268C888.89 227.104 851.846 226.254 814.896 223.723C805.686 223.179 792.89 222.781 783.892 220.824C781.234 220.247 773.051 215.334 770.243 213.688C762.516 209.201 754.838 204.629 747.216 199.973C728.89 188.535 727.508 183.923 707.557 195.4C702.731 198.176 692.395 202.311 687.233 204.208L686.952 204.083C672.288 197.33 671.89 191.076 660.93 181.581C648.856 185.256 630.954 193.704 619.59 199.196C611.763 195.429 603.743 192.082 595.554 189.169C586.874 192.009 571.419 198.367 563.256 202.578C553.629 207.539 547.607 211.902 536.804 216.236C535.073 210.779 533.273 205.345 531.399 199.935C527.071 187.66 514.972 156.453 502.954 149.346C497.17 145.928 483.583 153.126 476.789 155.695C475.071 150.393 474.006 145.125 472.816 139.692Z" fill="#057CC6"/>
<path d="M382.326 -31.536C384.306 -31.4058 386.274 -31.1898 388.235 -30.8884C444.794 -22.3019 490.4 22.5897 523.066 66.7716C505.749 66.6527 489.042 65.0893 471.8 64.9448C466.607 64.9019 458.449 68.5037 453.804 68.2653C437.378 67.4216 421.792 70.9531 405.857 72.0626C380.987 73.7954 355.469 73.2923 330.551 73.5146C317.088 73.5538 304.194 74.2673 290.675 72.6871C287.735 72.344 283.139 73.1279 280.535 72.6068C299.401 64.6441 316.343 53.5141 329.807 37.8988C333.89 33.1644 339.214 25.2807 343.087 20.0127C345.383 19.2338 344.713 20.1696 347.834 21.0662C349.407 19.1591 349.106 13.4385 350.304 11.0408C353.234 5.17193 358.203 -0.687566 362.269 -5.83789C364.766 -1.38117 365.551 -0.289711 368.888 3.4236C370.925 -11.0038 368.222 -22.2938 382.326 -31.536Z" fill="#4D2393"/>
<path d="M280.538 72.6068C283.141 73.128 287.738 72.3441 290.678 72.6871C304.196 74.2673 317.09 73.5538 330.554 73.5146C355.472 73.2923 380.99 73.7954 405.86 72.0627C421.794 70.9531 437.38 67.4216 453.807 68.2653C458.452 68.5037 466.609 64.9019 471.802 64.9448C489.045 65.0893 505.751 66.6527 523.068 66.7716C524.363 68.373 528.124 73.1435 529.575 74.0376C535.584 77.7322 549.719 79.2633 556.644 79.955C568.724 81.161 580.767 81.9399 592.803 83.0918C619.168 85.6202 645.495 88.4855 671.791 91.6864C683.099 93.0543 703.947 94.9689 714.383 97.3355C713.43 98.2675 712.44 98.8441 711.107 98.9095C693.255 99.7562 675.328 99.9735 657.45 100.27C638.571 100.47 619.747 102.016 600.873 102.093C591.626 102.13 582.236 101.277 573.02 101.396C562.105 101.536 551.401 102.399 540.435 102.221C528.928 102.033 517.396 101.93 505.888 101.85C496.828 101.997 487.644 103.965 478.565 104.304C473.963 104.476 469.424 104.763 464.822 104.836C457.767 89.9941 449.572 85.2871 434.329 79.8467C427.243 85.5959 415.58 97.8996 408.743 104.745C390.946 103.65 283.196 106.08 277.425 102.256C286.787 100.228 297.033 100.026 306.533 98.577C308.652 98.7164 311.627 94.2834 310.025 92.5842C301.573 83.6179 285.349 84.6328 274.247 81.0371C272.032 80.3192 271.612 79.8162 270.871 78.2864C272.182 75.3812 277.435 73.857 280.538 72.6068Z" fill="#057CC6"/>
<path d="M714.381 97.3355C743.629 100.688 772.677 105.634 801.383 112.155C809.758 114.088 822.23 116.868 830.226 119.743C823.021 120.671 813.787 120.035 806.396 120.119C784.421 120.392 762.527 118.053 740.596 117.672C735.721 117.998 726.81 117.111 722.395 118.285C701.205 123.923 681.024 119.774 659.921 119.965C643.37 120.116 628.238 121.364 611.413 119.145C604.832 118.276 594.819 120.856 587.87 120.085C574.706 119.227 562.956 116.616 549.637 116.428C534.343 116.212 539.443 123.855 531.205 124.391C512.169 125.628 488.414 122.89 469.385 121.241C468.444 115.602 466.707 110.211 464.82 104.836C469.422 104.763 473.961 104.476 478.563 104.305C487.642 103.965 496.826 101.997 505.887 101.85C517.394 101.93 528.926 102.033 540.433 102.221C551.399 102.399 562.103 101.536 573.019 101.396C582.234 101.277 591.624 102.13 600.871 102.093C619.745 102.016 638.569 100.47 657.449 100.27C675.326 99.9735 693.253 99.7563 711.106 98.9095C712.438 98.8441 713.428 98.2676 714.381 97.3355Z" fill="#4D2393"/>
<path d="M984.806 246.816C991.531 246.852 995.404 251.962 992.95 258.345C986.68 274.697 972.221 284.097 957.245 291.523C904.566 317.639 844.67 323.713 787.364 332.797C771.392 335.332 740.189 340.126 725.724 345.993C705.655 355.719 689.228 373.487 671.164 386.324C651.58 400.242 631.113 412.676 609.792 423.643C604.182 426.53 596.23 430.623 589.972 428.766C588.415 427.506 587.979 425.872 587.307 423.998C580.096 403.996 589.548 376.415 598.652 358.31C567.954 357.66 543.563 361.225 513.251 365.04C497.596 367.01 481.674 367.237 466.001 368.595C454.637 369.58 436.872 365.512 427.488 367.816C423.739 368.736 403.869 383.504 399.566 386.897C393.246 391.877 382.704 398.044 376.458 402.865C365.73 411.145 298.352 453.482 287.794 451.433C281.634 445.723 271.846 396.506 274.6 386.556C276.587 379.375 283.992 358.378 290.908 354.23C303.33 346.78 308.713 348.485 315.788 334.635C310.601 337.68 298.35 345.076 292.971 346.339C261.246 353.784 219.326 348.736 187.945 343.137C177.597 347.11 166.845 356.692 157.787 363.078C134.411 379.559 101.784 408.616 72.2638 408.644C67.5376 403.066 65.697 396.727 61.1134 391.324C57.9956 387.65 52.4667 384.696 49.0202 381.164C42.5218 374.506 36.9145 366.968 31.248 359.603C26.5679 353.403 22.7888 341.715 17.5464 335.996C10.728 329.286 -3.69035 331.581 -8.75716 322.546C-14.3078 312.647 8.43463 298.294 15.5239 294.547C18.7905 292.837 22.1724 291.355 25.6445 290.112C30.0643 288.547 63.7542 278.153 65.8888 278.815C64.233 280.732 32.8813 289.127 28.1638 290.609C21.2968 292.768 16.9001 295.076 10.4366 298.752C2.5303 303.718 -5.04283 311.113 -9.84375 319.134C-0.285496 332.96 9.25096 326.285 18.7034 335.452C23.069 339.686 28.2803 354.347 33.9499 361.022C39.0939 367.079 44.5337 375.147 50.8359 380.98C54.0571 383.962 60.4004 388.017 62.7274 391.111C66.5743 396.226 68.443 401.732 72.5945 407.284C104.459 409.356 154.545 360.564 181.374 345.045C183.679 343.711 185.434 342.726 187.967 341.691C218.429 347.788 253.788 351.473 285.054 347.142C293.126 346.024 303.446 339.802 310.587 336.334C312.926 335.199 312.839 334.621 315.126 335.42C318.06 346.641 293.655 351.546 289.094 357.3C285.952 361.263 278.453 376.595 277.252 380.937C272.024 399.836 281.092 433.714 288.27 451.05C338.415 432.74 381.129 395.806 425.333 367.4C430.62 364.003 457.209 368.08 466.206 367.576C482.434 366.686 498.642 365.37 514.801 363.628C547.336 359.923 567.368 356.175 600.047 357.557C598.845 361.017 596.616 364.677 595.358 368.166C587.755 389.228 581.497 406.895 590.252 428.256C611.436 427.195 655.142 395.21 673.711 382.971C686.737 374.383 711.421 348.792 725.886 344.578C790.421 325.78 859.838 326.41 923.913 304.055C947.208 295.896 978.373 284.407 990.478 261.158C993.698 254.97 992.888 250.448 986.07 247.954C972.202 250.831 930.034 259.452 917.761 257.684L918.072 257.005C937.886 256.435 965.228 251.117 984.806 246.816Z" fill="#C5C3C9"/>
<path d="M381.168 -37.8481C429.975 -37.6221 477.367 3.05256 508.695 36.9761C514.803 43.6244 520.8 50.3761 526.678 57.2281C529.38 60.3387 534.474 66.555 537.426 68.9844L537.886 69.3555C543.304 70.6157 555.87 71.7794 561.872 72.4773L609.246 77.8923C646.894 82.1604 684.511 86.7167 722.096 91.5613C788.014 100.344 847.144 109.995 905.141 144.94C921.543 154.821 1009.34 203.383 996.216 226.324C992.679 229.446 978.606 227.018 972.093 229.253C954.707 235.219 940.211 246.466 923.012 252.83C920.086 253.914 917.489 255.323 914.426 255.967L914.675 255.063C916.512 253.788 918.616 252.802 920.758 252.12C938.474 246.471 953.306 234.122 970.959 228.542C978.394 226.193 987.778 226.312 995.518 226.102C995.537 222.183 995.425 219.335 994.329 215.54C993.052 211.152 990.786 207.114 987.71 203.734C982.859 198.297 974.994 192.872 969.172 188.345C945.267 169.761 920.92 154.854 894.3 140.502C869.2 127.698 840.369 115.052 812.977 108.164C777.129 99.1479 735.44 94.2934 698.515 89.6779L537.432 70.8666C531.28 65.3527 516.771 47.7836 510.164 40.4541C478.276 5.17259 437.36 -30.3312 388.298 -36.2311C370.259 -38.4003 358.814 -12.815 349.79 -0.320184C338.004 16.0056 327.737 34.5223 312.274 47.8383C301.826 56.8365 289.08 63.0428 276.453 68.3245C268.543 71.7227 259.544 74.3022 253.113 79.6499C262.818 86.114 282.819 89.5334 294.805 92.4118L294.664 93.1303C294.234 93.3159 292.252 93.2418 291.869 93.1035C284.132 90.3142 258.688 86.9097 254.065 80.9475C253.436 77.8412 255.751 75.7641 258.343 74.6272C272.212 68.5424 285.368 64.0178 298.472 56.103C319.778 43.2341 331.15 24.6513 344.948 4.85068C354.019 -8.16646 366.267 -31.7495 381.168 -37.8481Z" fill="#C5C3C9"/>
</g>
<defs>
<clipPath id="clip0_46_61">
<rect width="738" height="414" fill="white"/>
</clipPath>
</defs>
</svg>
